<?xml version="1.0" encoding="utf-8"?>
<!-- Generator: Adobe Illustrator 23.0.1, SVG Export Plug-In . SVG Version: 6.00 Build 0)  -->
<svg version="1.1" id="Layer_1" xmlns="http://www.w3.org/2000/svg" xmlns:xlink="http://www.w3.org/1999/xlink" x="0px" y="0px"
	 viewBox="0 0 157.7 123.3" style="enable-background:new 0 0 157.7 123.3;" xml:space="preserve">
<style type="text/css">
	.st0{display:none;}
	.st1{display:inline;fill:#15233F;}
	.st2{fill:url(#SVGID_1_);}
	.st3{fill:url(#SVGID_2_);}
	.st4{fill:#00708E;}
	.st5{fill:url(#SVGID_3_);}
	.st6{fill:#0093C6;}
	.st7{fill:url(#SVGID_4_);}
	.st8{fill:url(#SVGID_5_);}
	.st9{fill:url(#SVGID_6_);}
	.st10{fill:url(#SVGID_7_);}
	.st11{fill:url(#SVGID_8_);}
	.st12{fill:url(#SVGID_9_);}
	.st13{fill:url(#SVGID_10_);}
</style>
<g class="st0">
	<path class="st1" d="M-2.7,128H1l6,9.4l6-9.4h3.7v19.9h-3.5v-14.3L7.1,143H7l-6.2-9.3v14.2h-3.4V128z"/>
	<path class="st1" d="M21.1,137.9c0-5.6,4.3-10.3,10.4-10.3s10.4,4.6,10.4,10.3c0,5.6-4.3,10.3-10.4,10.3
		C25.3,148.2,21.1,143.5,21.1,137.9z M38.2,137.9c0-3.9-2.8-7.1-6.8-7.1c-3.9,0-6.7,3.1-6.7,7.1c0,3.9,2.8,7.1,6.8,7.1
		C35.4,145,38.2,141.8,38.2,137.9z"/>
	<path class="st1" d="M46.1,128H55c2.3,0,4.1,0.6,5.2,1.8c0.9,0.9,1.3,2,1.3,3.4c0,2.4-1.4,3.7-2.8,4.4c2.3,0.8,3.9,2.1,3.9,4.9
		c0,3.6-2.9,5.4-7.3,5.4h-9.2L46.1,128L46.1,128z M54.3,136.3c2.2,0,3.8-0.9,3.8-2.8c0-1.6-1.3-2.5-3.5-2.5h-5v5.3H54.3z
		 M55.3,144.7c2.4,0,3.8-0.9,3.8-2.8c0-1.7-1.3-2.7-4.1-2.7h-5.5v5.4H55.3z"/>
	<path class="st1" d="M66.8,128h3.5v19.9h-3.5V128z"/>
	<path class="st1" d="M75.3,139.4V128h3.5v11.3c0,3.7,1.9,5.7,5,5.7c3.1,0,5-1.9,5-5.5V128h3.5v11.3c0,5.9-3.3,8.9-8.6,8.9
		C78.6,148.1,75.3,145.2,75.3,139.4z"/>
	<path class="st1" d="M95.7,144.9l2.1-2.5c1.9,1.6,3.8,2.6,6.3,2.6c2.2,0,3.5-1,3.5-2.6c0-1.4-0.8-2.2-4.5-3.1c-4.2-1-6.6-2.2-6.6-6
		c0-3.4,2.8-5.8,6.8-5.8c2.9,0,5.2,0.9,7.2,2.5l-1.9,2.6c-1.8-1.3-3.6-2-5.4-2c-2,0-3.2,1.1-3.2,2.4c0,1.5,0.9,2.2,4.7,3.1
		c4.2,1,6.4,2.5,6.4,5.9c0,3.7-2.9,5.9-7.1,5.9C101,148.1,98.1,147.1,95.7,144.9z"/>
	<path class="st1" d="M128.6,131.2h-6.3V128h16.1v3.2h-6.3v16.6h-3.5V131.2z"/>
	<path class="st1" d="M142.2,128h8.9c4.6,0,7.4,2.5,7.4,6.3c0,3.3-2,5.2-4.7,6l5.4,7.5h-4.1l-4.9-6.9h-4.3v6.9h-3.5L142.2,128
		L142.2,128z M150.8,137.8c2.5,0,4.1-1.3,4.1-3.4c0-2.1-1.5-3.3-4.1-3.3h-5.1v6.7H150.8z"/>
	<path class="st1" d="M169.7,127.8h3.2l8.7,20H178l-2-4.8h-9.4l-2.1,4.8H161L169.7,127.8z M174.7,139.9l-3.4-7.9l-3.4,7.9H174.7z"/>
	<path class="st1" d="M185.1,128h7.4c6.3,0,10.6,4.3,10.6,9.9c0,5.6-4.3,9.9-10.6,9.9h-7.4V128z M192.5,144.7c4.2,0,6.9-2.8,6.9-6.8
		c0-3.9-2.7-6.8-6.9-6.8h-3.9v13.5L192.5,144.7L192.5,144.7z"/>
	<path class="st1" d="M207.3,128H222v3.1h-11.2v5.2h10v3.1h-10v5.3h11.4v3.1h-14.9L207.3,128L207.3,128z"/>
	<path class="st1" d="M226.3,128h8.9c4.6,0,7.4,2.5,7.4,6.3c0,3.3-2,5.2-4.7,6l5.4,7.5h-4.1l-4.9-6.9h-4.3v6.9h-3.5V128z
		 M234.9,137.8c2.5,0,4.1-1.3,4.1-3.4c0-2.1-1.5-3.3-4.1-3.3h-5.1v6.7H234.9z"/>
</g>
<g>
	
		<linearGradient id="SVGID_1_" gradientUnits="userSpaceOnUse" x1="27.9586" y1="17.1591" x2="148.3497" y2="115.6602" gradientTransform="matrix(1 0 0 -1 0 123.1143)">
		<stop  offset="0" style="stop-color:#0046A8"/>
		<stop  offset="1.996730e-03" style="stop-color:#0046A9"/>
		<stop  offset="0.1428" style="stop-color:#1C5AD2"/>
		<stop  offset="0.2151" style="stop-color:#2662E2"/>
		<stop  offset="0.5731" style="stop-color:#2662E2"/>
		<stop  offset="0.618" style="stop-color:#2662E2"/>
		<stop  offset="0.7317" style="stop-color:#2565E2"/>
		<stop  offset="0.8147" style="stop-color:#226EE2"/>
		<stop  offset="0.8879" style="stop-color:#1C7EE2"/>
		<stop  offset="0.9552" style="stop-color:#1494E2"/>
		<stop  offset="1" style="stop-color:#0DA8E2"/>
	</linearGradient>
	<path class="st2" d="M153.3,8.2c-6.1-7.4-14.4-10.9-20.7-5.7L95.2,33.3l0,0l-72,59.2C24,99,24.6,107,22.3,116
		c4.7,5.9,3,6.5,7.9,2.6c1.1-0.9,79.4-65.4,80.6-66.3l0,0c0,0,37.7-31.1,38.8-32c7.5-6.1,8.1-2.7,8.1-2.7S158.4,14.3,153.3,8.2z"/>
	
		<linearGradient id="SVGID_2_" gradientUnits="userSpaceOnUse" x1="14.7808" y1="-0.1428" x2="14.7808" y2="107.6079" gradientTransform="matrix(1 0 0 -1 0 123.1143)">
		<stop  offset="0" style="stop-color:#0B8D06"/>
		<stop  offset="0.1365" style="stop-color:#28CC23"/>
		<stop  offset="0.5916" style="stop-color:#28CC23"/>
		<stop  offset="0.6938" style="stop-color:#27C922"/>
		<stop  offset="0.7685" style="stop-color:#25C020"/>
		<stop  offset="0.8344" style="stop-color:#21B01C"/>
		<stop  offset="0.8953" style="stop-color:#1B9916"/>
		<stop  offset="0.9521" style="stop-color:#137D0E"/>
		<stop  offset="1" style="stop-color:#0B5E06"/>
	</linearGradient>
	<path class="st3" d="M25.5,26.2C15.9,26.2,0,9.7,0,17.7v36.7v7.9v48.6c0,8.1,8,12.3,17.6,12.3c8,0,10.1-2.6,10.1-2.6s-3,1.3-3-8
		c0-1.1,0-34.7,0-50.3c0-4.8,0-7.9,0-7.9c0-14.1,0-22.7,0-23.8c0-7.2,3-1.8,3-1.8S33.1,26.1,25.5,26.2z"/>
	<path class="st4" d="M5.7,23.1"/>
	
		<linearGradient id="SVGID_3_" gradientUnits="userSpaceOnUse" x1="0" y1="62.2421" x2="137.9287" y2="62.2421" gradientTransform="matrix(1 0 0 -1 0 123.1143)">
		<stop  offset="0" style="stop-color:#51FF3B"/>
		<stop  offset="6.550000e-02" style="stop-color:#47F235"/>
		<stop  offset="0.1864" style="stop-color:#2BD025"/>
		<stop  offset="0.1978" style="stop-color:#28CC23"/>
		<stop  offset="0.7417" style="stop-color:#28CC23"/>
		<stop  offset="0.7996" style="stop-color:#23BC1E"/>
		<stop  offset="0.912" style="stop-color:#169311"/>
		<stop  offset="1" style="stop-color:#0B6E06"/>
	</linearGradient>
	<path class="st5" d="M134.3,92.4l-71.7-59l0,0L25.1,2.5C18.9-2.6,10.5,0.9,4.4,8.3C-0.6,14.4,0,17.7,0,17.7s0.7-3.5,8.1,2.8
		c1.1,0.9,36.5,30.1,38.7,31.9l0,0c0,0,79.5,65.4,80.6,66.3c4.9,3.8,6.4,4.8,7.9-2.6C137.2,106.9,140.5,97.6,134.3,92.4z"/>
	<path class="st6" d="M0,22.1"/>
	
		<linearGradient id="SVGID_4_" gradientUnits="userSpaceOnUse" x1="143.8944" y1="-0.1528" x2="143.8944" y2="106.4407" gradientTransform="matrix(1 0 0 -1 0 123.1143)">
		<stop  offset="0" style="stop-color:#0031A8"/>
		<stop  offset="6.850000e-02" style="stop-color:#073EC7"/>
		<stop  offset="0.1365" style="stop-color:#0D4AE2"/>
		<stop  offset="0.5916" style="stop-color:#2662E2"/>
		<stop  offset="0.7222" style="stop-color:#2460DF"/>
		<stop  offset="0.8175" style="stop-color:#1E58D6"/>
		<stop  offset="0.9017" style="stop-color:#144AC6"/>
		<stop  offset="0.9789" style="stop-color:#0537B0"/>
		<stop  offset="1" style="stop-color:#0031A8"/>
	</linearGradient>
	<path class="st7" d="M149.6,20.4c0,0-16.5,13.5-16.5,13.6c0,0,0,15.3,0,28.4c0,0,0,8.5,0,18.5c0,14,0,31,0,31.9c0,9.7-3,8-3,8
		s2.1,2.6,10.1,2.6c9.6,0,17.6-4.2,17.6-12.3V80.8V62.3c0-18.6,0-44.6,0-44.7C156.5,14.4,149.6,20.4,149.6,20.4z"/>
	
		<linearGradient id="SVGID_5_" gradientUnits="userSpaceOnUse" x1="89.5152" y1="68.2257" x2="102.7044" y2="81.2252" gradientTransform="matrix(1 0 0 -1 0 123.1143)">
		<stop  offset="0" style="stop-color:#0046A8;stop-opacity:0.75"/>
		<stop  offset="9.229650e-03" style="stop-color:#0046A9;stop-opacity:0.743"/>
		<stop  offset="0.6599" style="stop-color:#1C5AD2;stop-opacity:0.2523"/>
		<stop  offset="0.9944" style="stop-color:#2662E2;stop-opacity:0"/>
	</linearGradient>
	<polygon class="st8" points="78.8,46.8 98.2,62.7 112.4,51 94.3,34 	"/>
	
		<linearGradient id="SVGID_6_" gradientUnits="userSpaceOnUse" x1="-131.6998" y1="578.4047" x2="-118.5105" y2="591.4042" gradientTransform="matrix(-1 0 0 1 -63.5989 -507.8863)">
		<stop  offset="0" style="stop-color:#0046A8;stop-opacity:0.75"/>
		<stop  offset="9.229650e-03" style="stop-color:#0046A9;stop-opacity:0.743"/>
		<stop  offset="0.6599" style="stop-color:#1C5AD2;stop-opacity:0.2523"/>
		<stop  offset="0.9944" style="stop-color:#2662E2;stop-opacity:0"/>
	</linearGradient>
	<polygon class="st9" points="78.8,78.6 59.4,62.7 45.2,74.4 63.3,91.4 	"/>
	
		<linearGradient id="SVGID_7_" gradientUnits="userSpaceOnUse" x1="141.5094" y1="-0.1146" x2="141.5094" y2="99.8672" gradientTransform="matrix(1 0 0 -1 0 123.1143)">
		<stop  offset="0" style="stop-color:#157A10"/>
		<stop  offset="4.360000e-02" style="stop-color:#1A8F15"/>
		<stop  offset="0.1068" style="stop-color:#1FA51A"/>
		<stop  offset="0.1804" style="stop-color:#23B71E"/>
		<stop  offset="0.2696" style="stop-color:#26C321"/>
		<stop  offset="0.3908" style="stop-color:#28CA23"/>
		<stop  offset="0.6863" style="stop-color:#28CC23"/>
		<stop  offset="0.7487" style="stop-color:#26C221"/>
		<stop  offset="0.853" style="stop-color:#20A91B"/>
		<stop  offset="0.9858" style="stop-color:#167F11"/>
		<stop  offset="1" style="stop-color:#157A10"/>
	</linearGradient>
	<path class="st10" d="M146.1,23.2v92.2c0,2.4-0.7,6.9-7,7.8c-0.6,0-2.1-0.1-2.1-0.1c6.8,0,7.8-4.9,7.8-7.6V24.3"/>
	
		<linearGradient id="SVGID_8_" gradientUnits="userSpaceOnUse" x1="88.0894" y1="92.2598" x2="155.1194" y2="92.2598" gradientTransform="matrix(1 0 0 -1 0 123.1143)">
		<stop  offset="0" style="stop-color:#157A10"/>
		<stop  offset="1.420000e-02" style="stop-color:#167F11"/>
		<stop  offset="0.147" style="stop-color:#20A91B"/>
		<stop  offset="0.2513" style="stop-color:#26C221"/>
		<stop  offset="0.3137" style="stop-color:#28CC23"/>
	</linearGradient>
	<path class="st11" d="M88.1,54.4l55.3-45.9c1.8-1.5,5.9-3.9,10.5,0.5c0.3,0.4,1.2,1.7,1.2,1.7c-4.4-5.2-8.8-2.9-10.9-1.1L89.1,55.3
		L88.1,54.4z"/>
	
		<linearGradient id="SVGID_9_" gradientUnits="userSpaceOnUse" x1="16.2294" y1="-0.2346" x2="16.2294" y2="99.7572" gradientTransform="matrix(1 0 0 -1 0 123.1143)">
		<stop  offset="0" style="stop-color:#0D4AE2"/>
		<stop  offset="0.3321" style="stop-color:#0940C7"/>
		<stop  offset="1" style="stop-color:#002887"/>
	</linearGradient>
	<path class="st12" d="M11.7,23.4v92.2c0,2.4,0.7,6.9,7,7.8c0.7,0,2.2-0.1,2.2-0.1c-6.8,0-7.8-4.9-7.8-7.6V24.4"/>
	<path d="M144,23.6"/>
	
		<linearGradient id="SVGID_10_" gradientUnits="userSpaceOnUse" x1="2.5894" y1="87.9601" x2="89.0994" y2="87.9601" gradientTransform="matrix(1 0 0 -1 0 123.1143)">
		<stop  offset="0" style="stop-color:#267BE2"/>
		<stop  offset="5.070000e-02" style="stop-color:#2171E2"/>
		<stop  offset="0.1744" style="stop-color:#1860E2"/>
		<stop  offset="0.3244" style="stop-color:#1253E2"/>
		<stop  offset="0.5262" style="stop-color:#0E4CE2"/>
		<stop  offset="1" style="stop-color:#0D4AE2"/>
	</linearGradient>
	<path class="st13" d="M89.1,55.3l-1-0.9l-9.3,7.7c0,0-17.6-14.6-31.7-26.3c0,0,0,0,0,0l-33-27.4c-1.7-1.4-5.4-3.6-9.8-0.2
		C3.8,9,2.6,10.8,2.6,10.8c4.3-5.2,8.7-3,10.8-1.3l55.1,45.8l0,0c6.2,5.1,10.4,8.6,10.4,8.6L89.1,55.3z"/>
</g>
</svg>
