<svg xmlns="http://www.w3.org/2000/svg" viewBox="0 0 1024 1024" role="img"><path d="M516.564 63.574a458.743 458.743 0 01199.033 45.336c9.5 4.286 19.06 9.417 28.53 14.551l-41.535 36.795-62.27-64.165-107.297 94.09-63.184-67.587-197.305 175.372L398.86 435.698l-49.315 42.763 124.628 137.728-49.318 42.744 178.27 195.903 105.512-95.814 91.767 102.68c-18.189 13.691-38.09 27.405-59.698 39.36a456.308 456.308 0 01-223.27 58.13C267.327 959.191 64 758.202 64 511 63.125 265.468 266.485 63.574 516.564 63.574zm-83.093 420.033l108.171-95.814 96.94 106.928-108.194 95.807zm77.038 184.784L617.8 571.725l97.792 106.92-108.179 95.818zM356.5 301.403l108.137-95.815 96.921 106.925-108.179 95.814zm198.124-51.346l80.486-71.85 72.703 79.553-80.487 72.703zm143.662 329.349l80.456-71.858 72.703 80.391-80.486 71.904zm70.948 161.692l80.487-71.87 72.646 79.559-80.456 72.691zm32.892-369.566l53.642-47.909 48.444 53.06-53.639 47.89zM732.9 213.273l53.65-48.746 48.477 53.885-53.687 47.901zm137.585 316.53l53.642-47.905 49.322 53.04-54.495 47.893zM629.06 410.893l80.486-71.858 72.673 79.538-80.452 71.873z" fill="#017cc4"/></svg>